# xmcd CD database file
#
# Track frame offsets:
#	150
#	17228
#	38717
#	53774
#	74583
#	88767
#	109661
#	124894
#	142933
#	157453
#	172976
#	191147
#
# Disc length: 2794 seconds
#
# Revision: 0
# Processed by: cddbd v1.5.2PL0 Copyright (c) Steve Scherf et al.
# Submitted via: CDex 1.51
#
DISCID=ac0ae80c
DTITLE=Janine Wilson - Save Me From Myself
DYEAR=2005
DGENRE=Blues
TTITLE0=Don't Even Start
TTITLE1=It Should Be Me
TTITLE2=Stuck In The Middle
TTITLE3=Made To Fade
TTITLE4=Save Me From Myself
TTITLE5=Against My Will
TTITLE6=Ain't Got You
TTITLE7=Drunk Love
TTITLE8=So Long
TTITLE9=Every Time
TTITLE10=Have A Little Mercy
TTITLE11=Alone
EXTD=YEAR: 2005
EXTT0=
EXTT1=
EXTT2=
EXTT3=
EXTT4=
EXTT5=
EXTT6=
EXTT7=
EXTT8=
EXTT9=
EXTT10=
EXTT11=
PLAYORDER=
